<?xml version="1.0" encoding="UTF-8" standalone="no"?>
<!DOCTYPE svg PUBLIC "-//W3C//DTD SVG 1.1//EN" "http://www.w3.org/Graphics/SVG/1.1/DTD/svg11.dtd">
<svg width="1609" height="696" viewBox="0 0 1609 696" version="1.1" xmlns="http://www.w3.org/2000/svg" xmlns:xlink="http://www.w3.org/1999/xlink" xml:space="preserve" xmlns:serif="http://www.serif.com/" style="fill-rule:evenodd;clip-rule:evenodd;stroke-miterlimit:2;">
    <g clip-path="url(#_clip1)">
        <g transform="matrix(4.16667,0,0,4.16667,0,0)">
            <path d="M20.603,88.618L57.965,142.243L72.88,142.243L38.001,88.596L20.603,88.618Z" style="fill:rgb(0,96,54);fill-rule:nonzero;"/>
            <path d="M44.456,88.56L76.808,142.243L91.576,142.243L80.676,121.614L99.781,142.125L110.331,142.125L86.888,88.677L68.836,88.56L80.324,112.708L59.226,88.56L44.456,88.56Z" style="fill:rgb(0,96,54);fill-rule:nonzero;"/>
            <path d="M90.403,88.677L120.293,142.125L145.026,142.125L140.103,88.56L120.293,88.56L128.03,128.061L108.572,88.677L90.403,88.677Z" style="fill:rgb(0,96,54);fill-rule:nonzero;"/>
            <path d="M174.338,142.125L187.341,142.125L176.44,88.56L149.481,88.677L151.591,142.125L165.81,142.125L165.713,134.606L172.311,134.606L174.338,142.125ZM165.624,127.678L165.383,108.897L170.443,127.678L165.624,127.678Z" style="fill:rgb(0,96,54);fill-rule:nonzero;"/>
            <path d="M220.863,88.677L189.92,88.677L190.858,142.125L217.113,142.125L225.318,137.323L231.179,101.219L231.179,97.935L220.863,88.677ZM210.222,136.247L204.588,136.247L206.35,98.568L212.689,98.568L210.222,136.247Z" style="fill:rgb(0,96,54);fill-rule:nonzero;"/>
            <path d="M274.082,98.992L277.478,88.677L239.031,88.677L228.13,142.125L260.6,142.125L262.595,135.799L246.299,135.799L249.904,120.607L264.819,120.911L267.985,112.238L251.89,112.238L255.09,98.757L274.082,98.992Z" style="fill:rgb(0,96,54);fill-rule:nonzero;"/>
            <path d="M315.341,88.677L282.873,88.56L262.944,142.362L277.959,142.313L285.783,124.393L291.233,124.393L283.246,142.291L298.108,142.243L307.368,125.014L302.094,119.504L311.823,115.168L321.316,98.874L321.316,96.998L315.341,88.677ZM295.097,115.735L289.562,115.735L296.963,98.779L302.662,98.779L295.097,115.735Z" style="fill:rgb(0,96,54);fill-rule:nonzero;"/>
            <path d="M363.398,88.56L341.829,88.56L327.53,96.764L316.746,114.346L316.746,118.569L321.081,124.43L332.335,124.43L324.717,134.979L321.902,134.979L325.068,130.756L325.068,128.413L310.065,128.413L305.377,135.563L305.377,138.375L308.657,142.125L327.412,142.362L338.549,136.383L349.213,122.786L349.213,120.091L345.696,115.05L334.094,115.05L343.587,98.874L348.511,98.757L341.362,110.478L358.24,110.478L366.795,98.641L366.795,95.476L363.398,88.56Z" style="fill:rgb(0,96,54);fill-rule:nonzero;"/>
            <path d="M20.603,88.618L57.965,142.243L72.88,142.243L38.001,88.596L20.603,88.618Z" style="fill:rgb(60,112,128);fill-rule:nonzero;"/>
            <path d="M20.603,88.618L57.965,142.243L72.88,142.243L38.001,88.596L20.603,88.618Z" style="fill:none;stroke:rgb(35,31,32);stroke-width:1px;"/>
            <path d="M44.456,88.56L76.808,142.243L91.576,142.243L80.676,121.614L99.781,142.125L110.331,142.125L86.888,88.677L68.836,88.56L80.324,112.708L59.226,88.56L44.456,88.56Z" style="fill:rgb(60,112,128);fill-rule:nonzero;"/>
            <path d="M44.456,88.56L76.808,142.243L91.576,142.243L80.676,121.614L99.781,142.125L110.331,142.125L86.888,88.677L68.836,88.56L80.324,112.708L59.226,88.56L44.456,88.56Z" style="fill:none;stroke:rgb(35,31,32);stroke-width:1px;"/>
            <path d="M90.403,88.677L120.293,142.125L145.026,142.125L140.103,88.56L120.293,88.56L128.03,128.061L108.572,88.677L90.403,88.677Z" style="fill:rgb(60,112,128);fill-rule:nonzero;"/>
            <path d="M90.403,88.677L120.293,142.125L145.026,142.125L140.103,88.56L120.293,88.56L128.03,128.061L108.572,88.677L90.403,88.677Z" style="fill:none;stroke:rgb(35,31,32);stroke-width:1px;"/>
            <path d="M174.338,142.125L187.341,142.125L176.44,88.56L149.481,88.677L151.591,142.125L165.81,142.125L165.713,134.606L172.311,134.606L174.338,142.125ZM165.624,127.678L165.383,108.897L170.443,127.678L165.624,127.678Z" style="fill:rgb(60,112,128);fill-rule:nonzero;"/>
            <path d="M174.338,142.125L187.341,142.125L176.44,88.56L149.481,88.677L151.591,142.125L165.81,142.125L165.713,134.606L172.311,134.606L174.338,142.125ZM165.624,127.678L165.383,108.897L170.443,127.678L165.624,127.678Z" style="fill:none;stroke:rgb(35,31,32);stroke-width:1px;"/>
            <path d="M220.863,88.677L189.92,88.677L190.858,142.125L217.113,142.125L225.318,137.323L231.179,101.219L231.179,97.935L220.863,88.677ZM210.222,136.247L204.588,136.247L206.35,98.568L212.689,98.568L210.222,136.247Z" style="fill:rgb(60,112,128);fill-rule:nonzero;"/>
            <path d="M220.863,88.677L189.92,88.677L190.858,142.125L217.113,142.125L225.318,137.323L231.179,101.219L231.179,97.935L220.863,88.677ZM210.222,136.247L204.588,136.247L206.35,98.568L212.689,98.568L210.222,136.247Z" style="fill:none;stroke:rgb(35,31,32);stroke-width:1px;"/>
            <path d="M274.082,98.992L277.478,88.677L239.031,88.677L228.13,142.125L260.6,142.125L262.595,135.799L246.299,135.799L249.904,120.607L264.819,120.911L267.985,112.238L251.89,112.238L255.09,98.757L274.082,98.992Z" style="fill:rgb(60,112,128);fill-rule:nonzero;"/>
            <path d="M274.082,98.992L277.478,88.677L239.031,88.677L228.13,142.125L260.6,142.125L262.595,135.799L246.299,135.799L249.904,120.607L264.819,120.911L267.985,112.238L251.89,112.238L255.09,98.757L274.082,98.992Z" style="fill:none;stroke:rgb(35,31,32);stroke-width:1px;"/>
            <path d="M315.341,88.677L282.873,88.56L262.944,142.362L277.959,142.313L285.783,124.393L291.233,124.393L283.246,142.291L298.108,142.243L307.368,125.014L302.094,119.504L311.823,115.168L321.316,98.874L321.316,96.998L315.341,88.677ZM295.097,115.735L289.562,115.735L296.963,98.779L302.662,98.779L295.097,115.735Z" style="fill:rgb(60,112,128);fill-rule:nonzero;"/>
            <path d="M315.341,88.677L282.873,88.56L262.944,142.362L277.959,142.313L285.783,124.393L291.233,124.393L283.246,142.291L298.108,142.243L307.368,125.014L302.094,119.504L311.823,115.168L321.316,98.874L321.316,96.998L315.341,88.677ZM295.097,115.735L289.562,115.735L296.963,98.779L302.662,98.779L295.097,115.735Z" style="fill:none;stroke:rgb(35,31,32);stroke-width:1px;"/>
            <path d="M363.398,88.56L341.829,88.56L327.53,96.764L316.746,114.346L316.746,118.569L321.081,124.43L332.335,124.43L324.717,134.979L321.902,134.979L325.068,130.756L325.068,128.413L310.065,128.413L305.377,135.563L305.377,138.375L308.657,142.125L327.412,142.362L338.549,136.383L349.213,122.786L349.213,120.091L345.696,115.05L334.094,115.05L343.587,98.874L348.511,98.757L341.362,110.478L358.24,110.478L366.795,98.641L366.795,95.476L363.398,88.56Z" style="fill:rgb(60,112,128);fill-rule:nonzero;"/>
            <path d="M363.398,88.56L341.829,88.56L327.53,96.764L316.746,114.346L316.746,118.569L321.081,124.43L332.335,124.43L324.717,134.979L321.902,134.979L325.068,130.756L325.068,128.413L310.065,128.413L305.377,135.563L305.377,138.375L308.657,142.125L327.412,142.362L338.549,136.383L349.213,122.786L349.213,120.091L345.696,115.05L334.094,115.05L343.587,98.874L348.511,98.757L341.362,110.478L358.24,110.478L366.795,98.641L366.795,95.476L363.398,88.56Z" style="fill:none;stroke:rgb(35,31,32);stroke-width:1px;"/>
            <path d="M11.493,97.596L50.821,154.043L66.521,154.043L29.805,97.574L11.493,97.596Z" style="fill:rgb(85,54,142);fill-rule:nonzero;"/>
            <path d="M36.601,97.533L70.655,154.043L86.201,154.043L74.727,132.329L94.837,153.92L105.942,153.92L81.265,97.659L62.265,97.533L74.356,122.953L52.147,97.533L36.601,97.533Z" style="fill:rgb(85,54,142);fill-rule:nonzero;"/>
            <path d="M84.967,97.659L116.43,153.92L142.464,153.92L137.282,97.533L116.43,97.533L124.573,139.114L104.091,97.659L84.967,97.659Z" style="fill:rgb(85,54,142);fill-rule:nonzero;"/>
            <path d="M173.318,153.92L187.006,153.92L175.531,97.533L147.153,97.659L149.374,153.92L164.341,153.92L164.24,146.002L171.184,146.002L173.318,153.92ZM164.146,138.713L163.893,118.943L169.219,138.713L164.146,138.713Z" style="fill:rgb(85,54,142);fill-rule:nonzero;"/>
            <path d="M222.293,97.659L189.721,97.659L190.708,153.92L218.345,153.92L226.982,148.864L233.151,110.86L233.151,107.404L222.293,97.659ZM211.092,147.731L205.163,147.731L207.015,108.07L213.688,108.07L211.092,147.731Z" style="fill:rgb(85,54,142);fill-rule:nonzero;"/>
            <path d="M278.31,108.516L281.888,97.659L241.417,97.659L229.943,153.92L264.121,153.92L266.219,147.258L249.068,147.258L252.863,131.268L268.561,131.59L271.893,122.457L254.953,122.457L258.321,108.269L278.31,108.516Z" style="fill:rgb(85,54,142);fill-rule:nonzero;"/>
            <path d="M321.742,97.659L287.564,97.533L266.588,154.168L282.393,154.116L290.628,135.254L296.367,135.254L287.958,154.094L303.604,154.043L313.351,135.909L307.798,130.108L318.041,125.541L328.033,108.392L328.033,106.418L321.742,97.659ZM300.434,126.139L294.608,126.139L302.398,108.293L308.397,108.293L300.434,126.139Z" style="fill:rgb(85,54,142);fill-rule:nonzero;"/>
            <path d="M372.33,97.533L349.626,97.533L334.572,106.17L323.221,124.678L323.221,129.122L327.786,135.291L339.632,135.291L331.613,146.395L328.65,146.395L331.982,141.952L331.982,139.483L316.19,139.483L311.254,147.012L311.254,149.971L314.709,153.92L334.45,154.168L346.171,147.875L357.397,133.563L357.397,130.725L353.696,125.42L341.483,125.42L351.476,108.392L356.659,108.269L349.132,120.607L366.899,120.607L375.905,108.146L375.905,104.814L372.33,97.533Z" style="fill:rgb(85,54,142);fill-rule:nonzero;"/>
            <path d="M11.493,97.596L50.821,154.043L66.521,154.043L29.805,97.574L11.493,97.596Z" style="fill:rgb(77,70,142);fill-rule:nonzero;"/>
            <path d="M11.493,97.596L50.821,154.043L66.521,154.043L29.805,97.574L11.493,97.596Z" style="fill:none;stroke:rgb(35,31,32);stroke-width:1px;"/>
            <path d="M36.601,97.533L70.655,154.043L86.201,154.043L74.727,132.329L94.837,153.92L105.942,153.92L81.265,97.659L62.265,97.533L74.356,122.953L52.147,97.533L36.601,97.533Z" style="fill:rgb(77,70,142);fill-rule:nonzero;"/>
            <path d="M36.601,97.533L70.655,154.043L86.201,154.043L74.727,132.329L94.837,153.92L105.942,153.92L81.265,97.659L62.265,97.533L74.356,122.953L52.147,97.533L36.601,97.533Z" style="fill:none;stroke:rgb(35,31,32);stroke-width:1px;"/>
            <path d="M84.967,97.659L116.43,153.92L142.464,153.92L137.282,97.533L116.43,97.533L124.573,139.114L104.091,97.659L84.967,97.659Z" style="fill:rgb(77,70,142);fill-rule:nonzero;"/>
            <path d="M84.967,97.659L116.43,153.92L142.464,153.92L137.282,97.533L116.43,97.533L124.573,139.114L104.091,97.659L84.967,97.659Z" style="fill:none;stroke:rgb(35,31,32);stroke-width:1px;"/>
            <path d="M173.318,153.92L187.006,153.92L175.531,97.533L147.153,97.659L149.374,153.92L164.341,153.92L164.24,146.002L171.184,146.002L173.318,153.92ZM164.146,138.713L163.893,118.943L169.219,138.713L164.146,138.713Z" style="fill:rgb(77,70,142);fill-rule:nonzero;"/>
            <path d="M173.318,153.92L187.006,153.92L175.531,97.533L147.153,97.659L149.374,153.92L164.341,153.92L164.24,146.002L171.184,146.002L173.318,153.92ZM164.146,138.713L163.893,118.943L169.219,138.713L164.146,138.713Z" style="fill:none;stroke:rgb(35,31,32);stroke-width:1px;"/>
            <path d="M222.293,97.659L189.721,97.659L190.708,153.92L218.345,153.92L226.982,148.864L233.151,110.86L233.151,107.404L222.293,97.659ZM211.092,147.731L205.163,147.731L207.015,108.07L213.688,108.07L211.092,147.731Z" style="fill:rgb(77,70,142);fill-rule:nonzero;"/>
            <path d="M222.293,97.659L189.721,97.659L190.708,153.92L218.345,153.92L226.982,148.864L233.151,110.86L233.151,107.404L222.293,97.659ZM211.092,147.731L205.163,147.731L207.015,108.07L213.688,108.07L211.092,147.731Z" style="fill:none;stroke:rgb(35,31,32);stroke-width:1px;"/>
            <path d="M278.31,108.516L281.888,97.659L241.417,97.659L229.943,153.92L264.121,153.92L266.219,147.258L249.068,147.258L252.863,131.268L268.561,131.59L271.893,122.457L254.953,122.457L258.321,108.269L278.31,108.516Z" style="fill:rgb(77,70,142);fill-rule:nonzero;"/>
            <path d="M278.31,108.516L281.888,97.659L241.417,97.659L229.943,153.92L264.121,153.92L266.219,147.258L249.068,147.258L252.863,131.268L268.561,131.59L271.893,122.457L254.953,122.457L258.321,108.269L278.31,108.516Z" style="fill:none;stroke:rgb(35,31,32);stroke-width:1px;"/>
            <path d="M321.742,97.659L287.564,97.533L266.588,154.168L282.393,154.116L290.628,135.254L296.367,135.254L287.958,154.094L303.604,154.043L313.351,135.909L307.798,130.108L318.041,125.541L328.033,108.392L328.033,106.418L321.742,97.659ZM300.434,126.139L294.608,126.139L302.398,108.293L308.397,108.293L300.434,126.139Z" style="fill:rgb(77,70,142);fill-rule:nonzero;"/>
            <path d="M321.742,97.659L287.564,97.533L266.588,154.168L282.393,154.116L290.628,135.254L296.367,135.254L287.958,154.094L303.604,154.043L313.351,135.909L307.798,130.108L318.041,125.541L328.033,108.392L328.033,106.418L321.742,97.659ZM300.434,126.139L294.608,126.139L302.398,108.293L308.397,108.293L300.434,126.139Z" style="fill:none;stroke:rgb(35,31,32);stroke-width:1px;"/>
            <path d="M372.33,97.533L349.626,97.533L334.572,106.17L323.221,124.678L323.221,129.122L327.786,135.291L339.632,135.291L331.613,146.395L328.65,146.395L331.982,141.952L331.982,139.483L316.19,139.483L311.254,147.012L311.254,149.971L314.709,153.92L334.45,154.168L346.171,147.875L357.397,133.563L357.397,130.725L353.696,125.42L341.483,125.42L351.476,108.392L356.659,108.269L349.132,120.607L366.899,120.607L375.905,108.146L375.905,104.814L372.33,97.533Z" style="fill:rgb(77,70,142);fill-rule:nonzero;"/>
            <path d="M372.33,97.533L349.626,97.533L334.572,106.17L323.221,124.678L323.221,129.122L327.786,135.291L339.632,135.291L331.613,146.395L328.65,146.395L331.982,141.952L331.982,139.483L316.19,139.483L311.254,147.012L311.254,149.971L314.709,153.92L334.45,154.168L346.171,147.875L357.397,133.563L357.397,130.725L353.696,125.42L341.483,125.42L351.476,108.392L356.659,108.269L349.132,120.607L366.899,120.607L375.905,108.146L375.905,104.814L372.33,97.533Z" style="fill:none;stroke:rgb(35,31,32);stroke-width:1px;"/>
            <path d="M1.902,105.979L43.3,165.399L59.827,165.399L21.179,105.955L1.902,105.979Z" style="fill:rgb(250,235,45);fill-rule:nonzero;"/>
            <path d="M1.902,105.979L43.3,165.399L59.827,165.399L21.179,105.955L1.902,105.979Z" style="fill:none;stroke:rgb(35,31,32);stroke-width:1px;"/>
            <path d="M28.332,105.915L64.178,165.399L80.543,165.399L68.464,142.54L89.634,165.268L101.323,165.268L75.348,106.044L55.347,105.915L68.075,132.668L44.697,105.915L28.332,105.915Z" style="fill:rgb(250,235,45);fill-rule:nonzero;"/>
            <path d="M28.332,105.915L64.178,165.399L80.543,165.399L68.464,142.54L89.634,165.268L101.323,165.268L75.348,106.044L55.347,105.915L68.075,132.668L44.697,105.915L28.332,105.915Z" style="fill:none;stroke:rgb(35,31,32);stroke-width:1px;"/>
            <path d="M79.244,106.044L112.363,165.268L139.767,165.268L134.312,105.915L112.363,105.915L120.935,149.684L99.375,106.044L79.244,106.044Z" style="fill:rgb(250,235,45);fill-rule:nonzero;"/>
            <path d="M79.244,106.044L112.363,165.268L139.767,165.268L134.312,105.915L112.363,105.915L120.935,149.684L99.375,106.044L79.244,106.044Z" style="fill:none;stroke:rgb(35,31,32);stroke-width:1px;"/>
            <path d="M172.245,165.268L186.653,165.268L174.574,105.915L144.702,106.044L147.04,165.268L162.796,165.268L162.689,156.934L169.999,156.934L172.245,165.268ZM162.59,149.258L162.323,128.45L167.93,149.258L162.59,149.258Z" style="fill:rgb(250,235,45);fill-rule:nonzero;"/>
            <path d="M172.245,165.268L186.653,165.268L174.574,105.915L144.702,106.044L147.04,165.268L162.796,165.268L162.689,156.934L169.999,156.934L172.245,165.268ZM162.59,149.258L162.323,128.45L167.93,149.258L162.59,149.258Z" style="fill:none;stroke:rgb(35,31,32);stroke-width:1px;"/>
            <path d="M223.798,106.044L189.51,106.044L190.549,165.268L219.642,165.268L228.734,159.944L235.227,119.942L235.227,116.305L223.798,106.044ZM212.007,158.754L205.765,158.754L207.715,117.004L214.739,117.004L212.007,158.754Z" style="fill:rgb(250,235,45);fill-rule:nonzero;"/>
            <path d="M223.798,106.044L189.51,106.044L190.549,165.268L219.642,165.268L228.734,159.944L235.227,119.942L235.227,116.305L223.798,106.044ZM212.007,158.754L205.765,158.754L207.715,117.004L214.739,117.004L212.007,158.754Z" style="fill:none;stroke:rgb(35,31,32);stroke-width:1px;"/>
            <path d="M282.762,117.473L286.529,106.044L243.929,106.044L231.85,165.268L267.827,165.268L270.035,158.254L251.982,158.254L255.975,141.426L272.502,141.76L276.009,132.149L258.177,132.149L261.722,117.213L282.762,117.473Z" style="fill:rgb(250,235,45);fill-rule:nonzero;"/>
            <path d="M282.762,117.473L286.529,106.044L243.929,106.044L231.85,165.268L267.827,165.268L270.035,158.254L251.982,158.254L255.975,141.426L272.502,141.76L276.009,132.149L258.177,132.149L261.722,117.213L282.762,117.473Z" style="fill:none;stroke:rgb(35,31,32);stroke-width:1px;"/>
            <path d="M328.479,106.044L292.503,105.915L270.423,165.528L287.06,165.473L295.728,145.62L301.769,145.62L292.919,165.454L309.387,165.399L319.648,146.307L313.803,140.202L324.583,135.397L335.103,117.344L335.103,115.266L328.479,106.044ZM306.051,136.024L299.918,136.024L308.119,117.239L314.434,117.239L306.051,136.024Z" style="fill:rgb(250,235,45);fill-rule:nonzero;"/>
            <path d="M328.479,106.044L292.503,105.915L270.423,165.528L287.06,165.473L295.728,145.62L301.769,145.62L292.919,165.454L309.387,165.399L319.648,146.307L313.803,140.202L324.583,135.397L335.103,117.344L335.103,115.266L328.479,106.044ZM306.051,136.024L299.918,136.024L308.119,117.239L314.434,117.239L306.051,136.024Z" style="fill:none;stroke:rgb(35,31,32);stroke-width:1px;"/>
            <path d="M381.729,105.915L357.832,105.915L341.987,115.006L330.038,134.487L330.038,139.163L334.843,145.657L347.312,145.657L338.87,157.346L335.752,157.346L339.259,152.67L339.259,150.073L322.635,150.073L317.44,157.995L317.44,161.112L321.077,165.268L341.857,165.528L354.195,158.905L366.014,143.838L366.014,140.852L362.118,135.266L349.259,135.266L359.78,117.344L365.235,117.213L357.312,130.202L376.014,130.202L385.496,117.084L385.496,113.577L381.729,105.915Z" style="fill:rgb(250,235,45);fill-rule:nonzero;"/>
            <path d="M381.729,105.915L357.832,105.915L341.987,115.006L330.038,134.487L330.038,139.163L334.843,145.657L347.312,145.657L338.87,157.346L335.752,157.346L339.259,152.67L339.259,150.073L322.635,150.073L317.44,157.995L317.44,161.112L321.077,165.268L341.857,165.528L354.195,158.905L366.014,143.838L366.014,140.852L362.118,135.266L349.259,135.266L359.78,117.344L365.235,117.213L357.312,130.202L376.014,130.202L385.496,117.084L385.496,113.577L381.729,105.915Z" style="fill:none;stroke:rgb(35,31,32);stroke-width:1px;"/>
            <path d="M117.459,0.883L95.155,0.883L87.605,11.569L87.954,15.17L94.691,32.826L106.887,44.907L118.968,44.907L122.104,55.013L119.2,55.013L117.459,49.668L100.615,49.668L100.615,52.572L103.519,59.075L113.392,66.166L131.397,66.166L138.366,58.496L138.366,55.128L135.694,41.189L125.589,31.896L112.928,31.896L107.817,15.635L111.417,15.635L114.089,26.437L132.21,26.437L129.19,11.917L117.459,0.883Z" style="fill:rgb(60,112,128);fill-rule:nonzero;"/>
            <path d="M117.459,0.883L95.155,0.883L87.605,11.569L87.954,15.17L94.691,32.826L106.887,44.907L118.968,44.907L122.104,55.013L119.2,55.013L117.459,49.668L100.615,49.668L100.615,52.572L103.519,59.075L113.392,66.166L131.397,66.166L138.366,58.496L138.366,55.128L135.694,41.189L125.589,31.896L112.928,31.896L107.817,15.635L111.417,15.635L114.089,26.437L132.21,26.437L129.19,11.917L117.459,0.883Z" style="fill:none;stroke:rgb(35,31,32);stroke-width:1px;"/>
            <path d="M176.002,11.454L164.269,0.766L132.908,0.883L145.568,66.048L160.436,66.048L157.97,49.062L169.612,49.088L177.512,38.286L176.002,11.454ZM156.087,36.079L153.118,15.635L157.533,15.635L160.513,36.079L156.087,36.079Z" style="fill:rgb(60,112,128);fill-rule:nonzero;"/>
            <path d="M176.002,11.454L164.269,0.766L132.908,0.883L145.568,66.048L160.436,66.048L157.97,49.062L169.612,49.088L177.512,38.286L176.002,11.454ZM156.087,36.079L153.118,15.635L157.533,15.635L160.513,36.079L156.087,36.079Z" style="fill:none;stroke:rgb(35,31,32);stroke-width:1px;"/>
            <path d="M201.605,66.336L215.741,66.336L210.12,0.92L184.871,0.92L178.788,66.336L193.065,66.336L194.05,55.086L200.586,55.086L201.605,66.336ZM194.924,45.103L197.266,18.364L199.685,45.103L194.924,45.103Z" style="fill:rgb(60,112,128);fill-rule:nonzero;"/>
            <path d="M201.605,66.336L215.741,66.336L210.12,0.92L184.871,0.92L178.788,66.336L193.065,66.336L194.05,55.086L200.586,55.086L201.605,66.336ZM194.924,45.103L197.266,18.364L199.685,45.103L194.924,45.103Z" style="fill:none;stroke:rgb(35,31,32);stroke-width:1px;"/>
            <path d="M256.367,0.92L235.824,0.92L223.773,11.823L219.987,58.186L227.101,66.336L244.89,66.219L254.761,58.301L259.117,41.315L242.576,41.315L240.185,56.235L235.252,56.235L241.449,14.691L246.839,14.691L244.857,27.086L262.769,27.086L266.006,14.462L266.006,11.019L256.367,0.92Z" style="fill:rgb(60,112,128);fill-rule:nonzero;"/>
            <path d="M256.367,0.92L235.824,0.92L223.773,11.823L219.987,58.186L227.101,66.336L244.89,66.219L254.761,58.301L259.117,41.315L242.576,41.315L240.185,56.235L235.252,56.235L241.449,14.691L246.839,14.691L244.857,27.086L262.769,27.086L266.006,14.462L266.006,11.019L256.367,0.92Z" style="fill:none;stroke:rgb(35,31,32);stroke-width:1px;"/>
            <path d="M307.07,15.495L312.254,1.035L274.269,0.92L257.972,66.336L288.842,66.336L292.545,56.004L276.565,56.004L281.285,40.283L293.435,40.283L298.025,27.659L285.076,27.659L288.728,15.495L307.07,15.495Z" style="fill:rgb(60,112,128);fill-rule:nonzero;"/>
            <path d="M307.07,15.495L312.254,1.035L274.269,0.92L257.972,66.336L288.842,66.336L292.545,56.004L276.565,56.004L281.285,40.283L293.435,40.283L298.025,27.659L285.076,27.659L288.728,15.495L307.07,15.495Z" style="fill:none;stroke:rgb(35,31,32);stroke-width:1px;"/>
            <path d="M112.193,10.477L88.467,10.477L80.435,21.845L80.806,25.676L87.973,44.458L100.948,57.311L113.8,57.311L117.136,68.061L114.046,68.061L112.193,62.376L94.275,62.376L94.275,65.466L97.365,72.384L107.868,79.927L127.022,79.927L134.436,71.767L134.436,68.185L131.594,53.356L120.843,43.47L107.374,43.47L101.937,26.17L105.768,26.17L108.609,37.663L127.886,37.663L124.674,22.215L112.193,10.477Z" style="fill:rgb(77,70,142);fill-rule:nonzero;"/>
            <path d="M112.193,10.477L88.467,10.477L80.435,21.845L80.806,25.676L87.973,44.458L100.948,57.311L113.8,57.311L117.136,68.061L114.046,68.061L112.193,62.376L94.275,62.376L94.275,65.466L97.365,72.384L107.868,79.927L127.022,79.927L134.436,71.767L134.436,68.185L131.594,53.356L120.843,43.47L107.374,43.47L101.937,26.17L105.768,26.17L108.609,37.663L127.886,37.663L124.674,22.215L112.193,10.477Z" style="fill:none;stroke:rgb(35,31,32);stroke-width:1px;"/>
            <path d="M174.474,21.722L161.992,10.353L128.629,10.477L142.098,79.801L157.915,79.801L155.292,61.731L167.677,61.759L176.08,50.267L174.474,21.722ZM153.288,47.919L150.13,26.17L154.826,26.17L157.997,47.919L153.288,47.919Z" style="fill:rgb(77,70,142);fill-rule:nonzero;"/>
            <path d="M174.474,21.722L161.992,10.353L128.629,10.477L142.098,79.801L157.915,79.801L155.292,61.731L167.677,61.759L176.08,50.267L174.474,21.722ZM153.288,47.919L150.13,26.17L154.826,26.17L157.997,47.919L153.288,47.919Z" style="fill:none;stroke:rgb(35,31,32);stroke-width:1px;"/>
            <path d="M201.712,80.107L216.75,80.107L210.77,10.516L183.909,10.516L177.439,80.107L192.627,80.107L193.674,68.14L200.629,68.14L201.712,80.107ZM194.604,57.519L197.096,29.074L199.669,57.519L194.604,57.519Z" style="fill:rgb(77,70,142);fill-rule:nonzero;"/>
            <path d="M201.712,80.107L216.75,80.107L210.77,10.516L183.909,10.516L177.439,80.107L192.627,80.107L193.674,68.14L200.629,68.14L201.712,80.107ZM194.604,57.519L197.096,29.074L199.669,57.519L194.604,57.519Z" style="fill:none;stroke:rgb(35,31,32);stroke-width:1px;"/>
            <path d="M259.968,10.516L238.115,10.516L225.295,22.115L221.267,71.438L228.837,80.107L247.76,79.983L258.26,71.56L262.895,53.491L245.296,53.491L242.753,69.362L237.503,69.362L244.097,25.167L249.835,25.167L247.724,38.352L266.779,38.352L270.223,24.922L270.223,21.261L259.968,10.516Z" style="fill:rgb(77,70,142);fill-rule:nonzero;"/>
            <path d="M259.968,10.516L238.115,10.516L225.295,22.115L221.267,71.438L228.837,80.107L247.76,79.983L258.26,71.56L262.895,53.491L245.296,53.491L242.753,69.362L237.503,69.362L244.097,25.167L249.835,25.167L247.724,38.352L266.779,38.352L270.223,24.922L270.223,21.261L259.968,10.516Z" style="fill:none;stroke:rgb(35,31,32);stroke-width:1px;"/>
            <path d="M313.909,26.021L319.424,10.639L279.014,10.516L261.677,80.107L294.518,80.107L298.458,69.116L281.456,69.116L286.478,52.392L299.403,52.392L304.286,38.962L290.51,38.962L294.397,26.021L313.909,26.021Z" style="fill:rgb(77,70,142);fill-rule:nonzero;"/>
            <path d="M313.909,26.021L319.424,10.639L279.014,10.516L261.677,80.107L294.518,80.107L298.458,69.116L281.456,69.116L286.478,52.392L299.403,52.392L304.286,38.962L290.51,38.962L294.397,26.021L313.909,26.021Z" style="fill:none;stroke:rgb(35,31,32);stroke-width:1px;"/>
            <path d="M106.592,18.594L81.353,18.594L72.808,30.688L73.202,34.764L80.827,54.745L94.629,68.417L108.301,68.417L111.851,79.853L108.564,79.853L106.592,73.806L87.531,73.806L87.531,77.093L90.817,84.454L101.991,92.474L122.368,92.474L130.254,83.797L130.254,79.985L127.232,64.21L115.794,53.693L101.465,53.693L95.682,35.29L99.756,35.29L102.78,47.515L123.288,47.515L119.869,31.082L106.592,18.594Z" style="fill:rgb(250,235,45);fill-rule:nonzero;"/>
            <path d="M106.592,18.594L81.353,18.594L72.808,30.688L73.202,34.764L80.827,54.745L94.629,68.417L108.301,68.417L111.851,79.853L108.564,79.853L106.592,73.806L87.531,73.806L87.531,77.093L90.817,84.454L101.991,92.474L122.368,92.474L130.254,83.797L130.254,79.985L127.232,64.21L115.794,53.693L101.465,53.693L95.682,35.29L99.756,35.29L102.78,47.515L123.288,47.515L119.869,31.082L106.592,18.594Z" style="fill:none;stroke:rgb(35,31,32);stroke-width:1px;"/>
            <path d="M172.848,30.557L159.57,18.462L124.077,18.594L138.405,92.342L155.232,92.342L152.442,73.12L165.618,73.15L174.557,60.924L172.848,30.557ZM150.31,58.426L146.951,35.29L151.946,35.29L155.32,58.426L150.31,58.426Z" style="fill:rgb(250,235,45);fill-rule:nonzero;"/>
            <path d="M172.848,30.557L159.57,18.462L124.077,18.594L138.405,92.342L155.232,92.342L152.442,73.12L165.618,73.15L174.557,60.924L172.848,30.557ZM150.31,58.426L146.951,35.29L151.946,35.29L155.32,58.426L150.31,58.426Z" style="fill:none;stroke:rgb(35,31,32);stroke-width:1px;"/>
            <path d="M201.826,92.667L217.824,92.667L211.46,18.637L182.886,18.637L176.003,92.667L192.161,92.667L193.274,79.939L200.673,79.939L201.826,92.667ZM194.263,68.64L196.913,38.378L199.653,68.64L194.263,68.64Z" style="fill:rgb(250,235,45);fill-rule:nonzero;"/>
            <path d="M201.826,92.667L217.824,92.667L211.46,18.637L182.886,18.637L176.003,92.667L192.161,92.667L193.274,79.939L200.673,79.939L201.826,92.667ZM194.263,68.64L196.913,38.378L199.653,68.64L194.263,68.64Z" style="fill:none;stroke:rgb(35,31,32);stroke-width:1px;"/>
            <path d="M263.8,18.637L240.552,18.637L226.916,30.975L222.628,83.446L230.681,92.667L250.812,92.537L261.982,83.576L266.914,64.353L248.193,64.353L245.488,81.238L239.903,81.238L246.916,34.222L253.021,34.222L250.774,48.248L271.044,48.248L274.71,33.962L274.71,30.066L263.8,18.637Z" style="fill:rgb(250,235,45);fill-rule:nonzero;"/>
            <path d="M263.8,18.637L240.552,18.637L226.916,30.975L222.628,83.446L230.681,92.667L250.812,92.537L261.982,83.576L266.914,64.353L248.193,64.353L245.488,81.238L239.903,81.238L246.916,34.222L253.021,34.222L250.774,48.248L271.044,48.248L274.71,33.962L274.71,30.066L263.8,18.637Z" style="fill:none;stroke:rgb(35,31,32);stroke-width:1px;"/>
            <path d="M321.184,35.131L327.05,18.767L284.061,18.637L265.619,92.667L300.555,92.667L304.747,80.978L286.659,80.978L292.002,63.185L305.751,63.185L310.946,48.898L296.292,48.898L300.425,35.131L321.184,35.131Z" style="fill:rgb(250,235,45);fill-rule:nonzero;"/>
            <path d="M321.184,35.131L327.05,18.767L284.061,18.637L265.619,92.667L300.555,92.667L304.747,80.978L286.659,80.978L292.002,63.185L305.751,63.185L310.946,48.898L296.292,48.898L300.425,35.131L321.184,35.131Z" style="fill:none;stroke:rgb(35,31,32);stroke-width:1px;"/>
        </g>
    </g>
</svg>
