<?xml version="1.0" encoding="UTF-8" standalone="no"?>
<!DOCTYPE svg PUBLIC "-//W3C//DTD SVG 1.1//EN" "http://www.w3.org/Graphics/SVG/1.1/DTD/svg11.dtd">
<svg width="100%" height="100%" viewBox="0 0 1182 296" version="1.1" xmlns="http://www.w3.org/2000/svg" xmlns:xlink="http://www.w3.org/1999/xlink" xml:space="preserve" xmlns:serif="http://www.serif.com/" style="fill-rule:evenodd;clip-rule:evenodd;stroke-linejoin:round;stroke-miterlimit:2;">
    <g id="Artboard1" transform="matrix(1,0,0,1,-649.606,-1606.3)">
        <rect x="649.606" y="1606.3" width="1181.1" height="295.276" style="fill:none;"/>
        <g transform="matrix(3.27432,0,0,2.40694,-3410.45,-2319.75)">
            <path d="M1600.88,1661.93L1600.88,1723.27C1600.88,1740.19 1590.77,1753.94 1578.33,1753.94L1262.7,1753.94C1250.26,1753.94 1240.16,1740.19 1240.16,1723.27L1240.16,1661.93C1240.16,1645 1250.26,1631.26 1262.7,1631.26L1578.33,1631.26C1590.77,1631.26 1600.88,1645 1600.88,1661.93Z" style="fill:url(#_Linear1);"/>
        </g>
        <g transform="matrix(1,0,0,1,-60.8952,13.3005)">
            <g>
                <g>
                    <g transform="matrix(1,0,0,1,787.903,1794.96)">
                        <text x="0px" y="0px" style="font-family:'ChalkboardSE-Light', 'Chalkboard SE', cursive;font-size:145.833px;fill:rgb(77,70,142);">T</text>
                    </g>
                    <g transform="matrix(1,0,0,1,871.052,1794.96)">
                        <text x="0px" y="0px" style="font-family:'ChalkboardSE-Light', 'Chalkboard SE', cursive;font-size:145.833px;fill:rgb(77,70,142);">OGGLE M</text>
                    </g>
                    <g transform="matrix(1,0,0,1,1497.25,1794.96)">
                        <text x="0px" y="0px" style="font-family:'ChalkboardSE-Light', 'Chalkboard SE', cursive;font-size:145.833px;fill:rgb(77,70,142);">USIC</text>
                    </g>
                </g>
            </g>
        </g>
        <g transform="matrix(1,0,0,1,-66.8952,7.30053)">
            <g>
                <g>
                    <g transform="matrix(1,0,0,1,787.903,1794.96)">
                        <text x="0px" y="0px" style="font-family:'ChalkboardSE-Light', 'Chalkboard SE', cursive;font-size:145.833px;fill:white;">T</text>
                    </g>
                    <g transform="matrix(1,0,0,1,871.052,1794.96)">
                        <text x="0px" y="0px" style="font-family:'ChalkboardSE-Light', 'Chalkboard SE', cursive;font-size:145.833px;fill:white;">OGGLE M</text>
                    </g>
                    <g transform="matrix(1,0,0,1,1497.25,1794.96)">
                        <text x="0px" y="0px" style="font-family:'ChalkboardSE-Light', 'Chalkboard SE', cursive;font-size:145.833px;fill:white;">USIC</text>
                    </g>
                </g>
            </g>
        </g>
    </g>
    <defs>
        <linearGradient id="_Linear1" x1="0" y1="0" x2="1" y2="0" gradientUnits="userSpaceOnUse" gradientTransform="matrix(7.5118e-15,122.677,-122.677,7.5118e-15,1420.52,1631.26)"><stop offset="0" style="stop-color:rgb(250,235,45);stop-opacity:1"/><stop offset="0.76" style="stop-color:rgb(77,70,142);stop-opacity:1"/><stop offset="1" style="stop-color:rgb(60,112,128);stop-opacity:1"/></linearGradient>
    </defs>
</svg>
