<?xml version="1.0" encoding="UTF-8" standalone="no"?>
<!DOCTYPE svg PUBLIC "-//W3C//DTD SVG 1.1//EN" "http://www.w3.org/Graphics/SVG/1.1/DTD/svg11.dtd">
<svg width="100%" height="100%" viewBox="0 0 1182 296" version="1.1" xmlns="http://www.w3.org/2000/svg" xmlns:xlink="http://www.w3.org/1999/xlink" xml:space="preserve" xmlns:serif="http://www.serif.com/" style="fill-rule:evenodd;clip-rule:evenodd;stroke-linejoin:round;stroke-miterlimit:2;">
    <g id="Artboard1" transform="matrix(1,0,0,1,-649.606,-1606.3)">
        <rect x="649.606" y="1606.3" width="1181.1" height="295.276" style="fill:none;"/>
        <clipPath id="_clip1">
            <rect x="649.606" y="1606.3" width="1181.1" height="295.276"/>
        </clipPath>
        <g clip-path="url(#_clip1)">
            <g transform="matrix(3.27432,0,0,2.40694,-3410.45,-2319.75)">
                <path d="M1600.88,1661.93L1600.88,1723.27C1600.88,1740.19 1590.77,1753.94 1578.33,1753.94L1262.7,1753.94C1250.26,1753.94 1240.16,1740.19 1240.16,1723.27L1240.16,1661.93C1240.16,1645 1250.26,1631.26 1262.7,1631.26L1578.33,1631.26C1590.77,1631.26 1600.88,1645 1600.88,1661.93Z" style="fill:url(#_Linear2);"/>
            </g>
            <g transform="matrix(1,0,0,1,-76.9528,54.723)">
                <g transform="matrix(266.667,0,0,266.667,1615.65,1794.96)">
                </g>
                <text x="1001.29px" y="1794.96px" style="font-family:'ChalkboardSE-Light', 'Chalkboard SE', cursive;font-size:266.667px;">PLA<tspan x="1459.19px " y="1794.96px ">Y</tspan></text>
            </g>
        </g>
    </g>
    <defs>
        <linearGradient id="_Linear2" x1="0" y1="0" x2="1" y2="0" gradientUnits="userSpaceOnUse" gradientTransform="matrix(5.52189e-15,122.677,-90.1793,7.51177e-15,1420.52,1631.26)"><stop offset="0" style="stop-color:rgb(255,170,0);stop-opacity:1"/><stop offset="0.76" style="stop-color:white;stop-opacity:1"/><stop offset="1" style="stop-color:rgb(229,27,117);stop-opacity:1"/></linearGradient>
    </defs>
</svg>
