<?xml version="1.0" encoding="UTF-8" standalone="no"?>
<!DOCTYPE svg PUBLIC "-//W3C//DTD SVG 1.1//EN" "http://www.w3.org/Graphics/SVG/1.1/DTD/svg11.dtd">
<svg width="100%" height="100%" viewBox="0 0 1182 296" version="1.1" xmlns="http://www.w3.org/2000/svg" xmlns:xlink="http://www.w3.org/1999/xlink" xml:space="preserve" xmlns:serif="http://www.serif.com/" style="fill-rule:evenodd;clip-rule:evenodd;stroke-linejoin:round;stroke-miterlimit:2;">
    <g id="Artboard1" transform="matrix(1,0,0,1,-649.606,-1606.3)">
        <rect x="649.606" y="1606.3" width="1181.1" height="295.276" style="fill:none;"/>
        <g>
            <g>
                <g>
                    <clipPath id="_clip1">
                        <rect x="649.606" y="1606.3" width="1181.1" height="295.276"/>
                    </clipPath>
                    <g clip-path="url(#_clip1)">
                        <g transform="matrix(3.27432,0,0,2.40694,-3410.45,-2319.75)">
                            <path d="M1600.88,1661.93L1600.88,1723.27C1600.88,1740.19 1590.77,1753.94 1578.33,1753.94L1262.7,1753.94C1250.26,1753.94 1240.16,1740.19 1240.16,1723.27L1240.16,1661.93C1240.16,1645 1250.26,1631.26 1262.7,1631.26L1578.33,1631.26C1590.77,1631.26 1600.88,1645 1600.88,1661.93Z" style="fill:url(#_Linear2);"/>
                        </g>
                    </g>
                </g>
                <g transform="matrix(1,0,0,1,648.773,1666.04)">
                    <g transform="matrix(266,0,0,266,255.61,187.018)">
                        <path d="M0.075,-0.084C0.071,-0.094 0.069,-0.104 0.069,-0.113C0.069,-0.125 0.072,-0.135 0.08,-0.143C0.088,-0.151 0.098,-0.155 0.109,-0.155C0.121,-0.155 0.133,-0.151 0.144,-0.143C0.156,-0.128 0.171,-0.115 0.187,-0.106C0.204,-0.096 0.222,-0.088 0.24,-0.082C0.259,-0.077 0.278,-0.073 0.298,-0.071C0.317,-0.069 0.336,-0.067 0.355,-0.067C0.367,-0.072 0.376,-0.075 0.381,-0.076C0.385,-0.077 0.389,-0.078 0.392,-0.08C0.395,-0.081 0.399,-0.083 0.402,-0.086C0.406,-0.089 0.413,-0.094 0.423,-0.102C0.427,-0.107 0.439,-0.125 0.443,-0.13L0.453,-0.16L0.453,-0.175C0.453,-0.18 0.453,-0.185 0.452,-0.191C0.45,-0.196 0.449,-0.201 0.446,-0.206C0.444,-0.211 0.442,-0.216 0.44,-0.221C0.435,-0.226 0.419,-0.245 0.414,-0.25C0.408,-0.253 0.401,-0.257 0.394,-0.262C0.388,-0.266 0.38,-0.27 0.372,-0.272C0.342,-0.282 0.314,-0.289 0.289,-0.293C0.264,-0.297 0.24,-0.303 0.217,-0.309C0.195,-0.315 0.173,-0.325 0.154,-0.338C0.134,-0.351 0.114,-0.373 0.095,-0.402C0.091,-0.408 0.089,-0.413 0.088,-0.415C0.088,-0.418 0.087,-0.424 0.086,-0.431C0.085,-0.437 0.085,-0.443 0.085,-0.448C0.084,-0.454 0.084,-0.459 0.084,-0.464C0.084,-0.477 0.085,-0.489 0.088,-0.499C0.09,-0.51 0.094,-0.52 0.099,-0.529C0.105,-0.539 0.111,-0.549 0.119,-0.559C0.127,-0.569 0.137,-0.579 0.148,-0.591C0.161,-0.604 0.175,-0.615 0.191,-0.624C0.207,-0.632 0.224,-0.639 0.242,-0.644C0.26,-0.648 0.278,-0.652 0.297,-0.654C0.315,-0.655 0.334,-0.656 0.351,-0.656L0.367,-0.656C0.372,-0.656 0.377,-0.656 0.382,-0.655C0.399,-0.654 0.415,-0.65 0.43,-0.643C0.445,-0.636 0.461,-0.631 0.477,-0.627C0.494,-0.615 0.503,-0.6 0.503,-0.583C0.503,-0.572 0.499,-0.563 0.49,-0.554C0.482,-0.546 0.47,-0.541 0.454,-0.541C0.453,-0.541 0.451,-0.542 0.449,-0.542C0.447,-0.542 0.446,-0.543 0.444,-0.543C0.421,-0.55 0.4,-0.556 0.382,-0.56C0.364,-0.564 0.346,-0.566 0.329,-0.566C0.312,-0.566 0.294,-0.563 0.275,-0.557C0.257,-0.551 0.235,-0.541 0.211,-0.527C0.207,-0.521 0.202,-0.516 0.198,-0.511C0.193,-0.506 0.189,-0.501 0.185,-0.496C0.182,-0.492 0.18,-0.487 0.178,-0.483C0.177,-0.478 0.175,-0.474 0.173,-0.47C0.173,-0.465 0.174,-0.461 0.174,-0.456C0.174,-0.452 0.175,-0.448 0.176,-0.444C0.179,-0.441 0.188,-0.426 0.191,-0.422L0.238,-0.396C0.26,-0.39 0.28,-0.386 0.299,-0.382C0.319,-0.379 0.337,-0.374 0.355,-0.37C0.372,-0.365 0.39,-0.359 0.407,-0.352C0.424,-0.346 0.443,-0.337 0.463,-0.326C0.473,-0.32 0.482,-0.313 0.49,-0.303C0.497,-0.294 0.504,-0.285 0.51,-0.277C0.522,-0.263 0.531,-0.248 0.536,-0.23C0.542,-0.212 0.545,-0.194 0.545,-0.175C0.545,-0.148 0.54,-0.122 0.529,-0.097C0.519,-0.072 0.504,-0.052 0.485,-0.035C0.478,-0.029 0.472,-0.024 0.465,-0.019C0.458,-0.015 0.451,-0.01 0.444,-0.006C0.429,0.005 0.411,0.013 0.392,0.018C0.373,0.023 0.353,0.025 0.331,0.025C0.307,0.025 0.283,0.023 0.258,0.017C0.233,0.012 0.21,0.004 0.187,-0.006C0.164,-0.016 0.143,-0.028 0.124,-0.041C0.105,-0.054 0.088,-0.069 0.075,-0.084Z" style="fill:rgb(77,70,142);fill-rule:nonzero;"/>
                    </g>
                    <g transform="matrix(266,0,0,266,411.977,187.018)">
                        <path d="M0.066,-0.614C0.07,-0.629 0.076,-0.64 0.084,-0.647C0.092,-0.654 0.101,-0.657 0.112,-0.657C0.117,-0.657 0.122,-0.657 0.125,-0.655C0.153,-0.668 0.182,-0.678 0.213,-0.686C0.244,-0.694 0.275,-0.698 0.306,-0.698C0.327,-0.698 0.347,-0.696 0.366,-0.692C0.386,-0.688 0.405,-0.681 0.423,-0.671C0.443,-0.66 0.461,-0.647 0.477,-0.631C0.494,-0.615 0.507,-0.597 0.518,-0.577C0.529,-0.558 0.538,-0.537 0.544,-0.515C0.55,-0.493 0.554,-0.471 0.554,-0.449C0.554,-0.406 0.542,-0.366 0.519,-0.33C0.495,-0.293 0.465,-0.263 0.43,-0.24C0.394,-0.218 0.354,-0.205 0.308,-0.201C0.299,-0.2 0.29,-0.2 0.281,-0.199C0.272,-0.199 0.263,-0.199 0.255,-0.199C0.238,-0.199 0.222,-0.2 0.206,-0.201C0.189,-0.203 0.173,-0.204 0.157,-0.207L0.157,-0.112C0.157,-0.076 0.157,-0.045 0.158,-0.017C0.157,0 0.152,0.013 0.143,0.022C0.134,0.03 0.124,0.034 0.113,0.034C0.102,0.034 0.093,0.03 0.084,0.023C0.075,0.015 0.07,0.003 0.067,-0.013L0.067,-0.229C0.065,-0.229 0.063,-0.229 0.06,-0.231C0.049,-0.237 0.041,-0.244 0.035,-0.252C0.03,-0.26 0.028,-0.268 0.028,-0.276C0.028,-0.286 0.031,-0.294 0.038,-0.302C0.044,-0.31 0.054,-0.315 0.066,-0.318L0.066,-0.614ZM0.38,-0.591C0.357,-0.603 0.332,-0.609 0.305,-0.609C0.279,-0.609 0.253,-0.605 0.228,-0.597C0.202,-0.59 0.178,-0.58 0.157,-0.57L0.157,-0.298C0.172,-0.295 0.188,-0.292 0.203,-0.29C0.219,-0.288 0.235,-0.287 0.251,-0.287C0.266,-0.287 0.282,-0.288 0.297,-0.291C0.319,-0.294 0.34,-0.3 0.361,-0.307C0.382,-0.314 0.4,-0.326 0.417,-0.343C0.431,-0.359 0.442,-0.376 0.45,-0.396C0.457,-0.415 0.461,-0.434 0.461,-0.453C0.461,-0.481 0.454,-0.507 0.44,-0.532C0.427,-0.557 0.407,-0.576 0.38,-0.591Z" style="fill:rgb(77,70,142);fill-rule:nonzero;"/>
                    </g>
                    <g transform="matrix(266,0,0,266,565.992,187.018)">
                        <path d="M0.327,-0.094C0.343,-0.095 0.356,-0.091 0.365,-0.083C0.374,-0.075 0.38,-0.066 0.381,-0.055C0.383,-0.045 0.38,-0.035 0.373,-0.025C0.366,-0.015 0.354,-0.008 0.338,-0.004C0.3,-0.003 0.262,-0.002 0.224,-0.003C0.186,-0.003 0.148,-0.003 0.109,-0.003C0.093,-0.006 0.081,-0.011 0.073,-0.02C0.066,-0.03 0.062,-0.04 0.062,-0.05C0.063,-0.061 0.067,-0.071 0.076,-0.08C0.084,-0.088 0.097,-0.093 0.113,-0.094L0.145,-0.094C0.156,-0.094 0.167,-0.094 0.178,-0.093L0.178,-0.576L0.108,-0.576C0.092,-0.578 0.08,-0.584 0.072,-0.593C0.065,-0.602 0.061,-0.612 0.061,-0.623C0.062,-0.633 0.066,-0.643 0.075,-0.652C0.083,-0.661 0.095,-0.666 0.112,-0.666L0.339,-0.666C0.353,-0.662 0.364,-0.655 0.37,-0.646C0.377,-0.638 0.38,-0.629 0.38,-0.619C0.379,-0.61 0.375,-0.601 0.368,-0.593C0.361,-0.584 0.35,-0.579 0.336,-0.576L0.269,-0.576L0.269,-0.092C0.278,-0.092 0.288,-0.092 0.297,-0.092C0.307,-0.093 0.317,-0.093 0.327,-0.094Z" style="fill:rgb(77,70,142);fill-rule:nonzero;"/>
                    </g>
                    <g transform="matrix(266,0,0,266,683.855,187.018)">
                        <path d="M0.507,-0.648C0.511,-0.662 0.517,-0.673 0.525,-0.681C0.533,-0.688 0.542,-0.692 0.552,-0.692C0.562,-0.692 0.571,-0.688 0.58,-0.682C0.588,-0.675 0.594,-0.665 0.598,-0.651C0.598,-0.545 0.597,-0.443 0.596,-0.345C0.594,-0.246 0.59,-0.144 0.585,-0.039C0.585,-0.039 0.585,-0.038 0.586,-0.038L0.585,-0.038C0.584,-0.034 0.583,-0.031 0.583,-0.028L0.583,-0.02C0.579,-0.008 0.573,0.001 0.565,0.007C0.557,0.013 0.549,0.015 0.54,0.015C0.527,0.015 0.515,0.01 0.503,-0.002C0.501,-0.005 0.5,-0.008 0.498,-0.01C0.497,-0.012 0.495,-0.014 0.494,-0.017L0.493,-0.017L0.493,-0.019C0.466,-0.064 0.439,-0.107 0.411,-0.148C0.383,-0.188 0.354,-0.229 0.325,-0.268C0.295,-0.307 0.265,-0.346 0.235,-0.385C0.204,-0.424 0.173,-0.463 0.14,-0.504L0.14,-0.28C0.14,-0.243 0.141,-0.204 0.141,-0.164C0.141,-0.123 0.141,-0.079 0.141,-0.032C0.141,-0.015 0.136,-0.002 0.127,0.006C0.117,0.015 0.107,0.019 0.096,0.019C0.086,0.019 0.076,0.015 0.067,0.007C0.059,-0.001 0.053,-0.013 0.051,-0.029C0.051,-0.128 0.051,-0.229 0.05,-0.331C0.05,-0.433 0.05,-0.534 0.05,-0.633C0.053,-0.646 0.058,-0.657 0.066,-0.664C0.074,-0.671 0.084,-0.675 0.094,-0.675C0.104,-0.675 0.115,-0.671 0.127,-0.663C0.161,-0.622 0.194,-0.583 0.227,-0.544C0.259,-0.506 0.291,-0.467 0.322,-0.428C0.353,-0.389 0.384,-0.349 0.413,-0.308C0.443,-0.267 0.471,-0.224 0.499,-0.18C0.502,-0.261 0.504,-0.339 0.506,-0.413C0.507,-0.488 0.507,-0.566 0.507,-0.648Z" style="fill:rgb(77,70,142);fill-rule:nonzero;"/>
                    </g>
                    <g transform="matrix(266,0,0,266,858.445,187.018)">
                        <path d="M0.072,-0.056C0.072,-0.073 0.078,-0.088 0.09,-0.099C0.101,-0.111 0.115,-0.117 0.131,-0.117C0.148,-0.117 0.163,-0.111 0.175,-0.099C0.186,-0.088 0.192,-0.073 0.192,-0.056C0.192,-0.04 0.186,-0.026 0.175,-0.014C0.163,-0.003 0.148,0.003 0.131,0.003C0.115,0.003 0.101,-0.003 0.09,-0.014C0.078,-0.026 0.072,-0.04 0.072,-0.056ZM0.082,-0.627C0.085,-0.641 0.09,-0.651 0.099,-0.659C0.107,-0.666 0.116,-0.67 0.125,-0.67C0.135,-0.671 0.144,-0.667 0.152,-0.661C0.161,-0.654 0.168,-0.644 0.172,-0.63L0.172,-0.249C0.172,-0.232 0.167,-0.22 0.158,-0.212C0.149,-0.203 0.139,-0.199 0.129,-0.198C0.118,-0.198 0.108,-0.202 0.099,-0.209C0.09,-0.217 0.084,-0.229 0.082,-0.245L0.082,-0.627Z" style="fill:rgb(77,70,142);fill-rule:nonzero;"/>
                    </g>
                </g>
                <g transform="matrix(1,0,0,1,642.773,1660.04)">
                    <g transform="matrix(266,0,0,266,255.61,187.018)">
                        <path d="M0.075,-0.084C0.071,-0.094 0.069,-0.104 0.069,-0.113C0.069,-0.125 0.072,-0.135 0.08,-0.143C0.088,-0.151 0.098,-0.155 0.109,-0.155C0.121,-0.155 0.133,-0.151 0.144,-0.143C0.156,-0.128 0.171,-0.115 0.187,-0.106C0.204,-0.096 0.222,-0.088 0.24,-0.082C0.259,-0.077 0.278,-0.073 0.298,-0.071C0.317,-0.069 0.336,-0.067 0.355,-0.067C0.367,-0.072 0.376,-0.075 0.381,-0.076C0.385,-0.077 0.389,-0.078 0.392,-0.08C0.395,-0.081 0.399,-0.083 0.402,-0.086C0.406,-0.089 0.413,-0.094 0.423,-0.102C0.427,-0.107 0.439,-0.125 0.443,-0.13L0.453,-0.16L0.453,-0.175C0.453,-0.18 0.453,-0.185 0.452,-0.191C0.45,-0.196 0.449,-0.201 0.446,-0.206C0.444,-0.211 0.442,-0.216 0.44,-0.221C0.435,-0.226 0.419,-0.245 0.414,-0.25C0.408,-0.253 0.401,-0.257 0.394,-0.262C0.388,-0.266 0.38,-0.27 0.372,-0.272C0.342,-0.282 0.314,-0.289 0.289,-0.293C0.264,-0.297 0.24,-0.303 0.217,-0.309C0.195,-0.315 0.173,-0.325 0.154,-0.338C0.134,-0.351 0.114,-0.373 0.095,-0.402C0.091,-0.408 0.089,-0.413 0.088,-0.415C0.088,-0.418 0.087,-0.424 0.086,-0.431C0.085,-0.437 0.085,-0.443 0.085,-0.448C0.084,-0.454 0.084,-0.459 0.084,-0.464C0.084,-0.477 0.085,-0.489 0.088,-0.499C0.09,-0.51 0.094,-0.52 0.099,-0.529C0.105,-0.539 0.111,-0.549 0.119,-0.559C0.127,-0.569 0.137,-0.579 0.148,-0.591C0.161,-0.604 0.175,-0.615 0.191,-0.624C0.207,-0.632 0.224,-0.639 0.242,-0.644C0.26,-0.648 0.278,-0.652 0.297,-0.654C0.315,-0.655 0.334,-0.656 0.351,-0.656L0.367,-0.656C0.372,-0.656 0.377,-0.656 0.382,-0.655C0.399,-0.654 0.415,-0.65 0.43,-0.643C0.445,-0.636 0.461,-0.631 0.477,-0.627C0.494,-0.615 0.503,-0.6 0.503,-0.583C0.503,-0.572 0.499,-0.563 0.49,-0.554C0.482,-0.546 0.47,-0.541 0.454,-0.541C0.453,-0.541 0.451,-0.542 0.449,-0.542C0.447,-0.542 0.446,-0.543 0.444,-0.543C0.421,-0.55 0.4,-0.556 0.382,-0.56C0.364,-0.564 0.346,-0.566 0.329,-0.566C0.312,-0.566 0.294,-0.563 0.275,-0.557C0.257,-0.551 0.235,-0.541 0.211,-0.527C0.207,-0.521 0.202,-0.516 0.198,-0.511C0.193,-0.506 0.189,-0.501 0.185,-0.496C0.182,-0.492 0.18,-0.487 0.178,-0.483C0.177,-0.478 0.175,-0.474 0.173,-0.47C0.173,-0.465 0.174,-0.461 0.174,-0.456C0.174,-0.452 0.175,-0.448 0.176,-0.444C0.179,-0.441 0.188,-0.426 0.191,-0.422L0.238,-0.396C0.26,-0.39 0.28,-0.386 0.299,-0.382C0.319,-0.379 0.337,-0.374 0.355,-0.37C0.372,-0.365 0.39,-0.359 0.407,-0.352C0.424,-0.346 0.443,-0.337 0.463,-0.326C0.473,-0.32 0.482,-0.313 0.49,-0.303C0.497,-0.294 0.504,-0.285 0.51,-0.277C0.522,-0.263 0.531,-0.248 0.536,-0.23C0.542,-0.212 0.545,-0.194 0.545,-0.175C0.545,-0.148 0.54,-0.122 0.529,-0.097C0.519,-0.072 0.504,-0.052 0.485,-0.035C0.478,-0.029 0.472,-0.024 0.465,-0.019C0.458,-0.015 0.451,-0.01 0.444,-0.006C0.429,0.005 0.411,0.013 0.392,0.018C0.373,0.023 0.353,0.025 0.331,0.025C0.307,0.025 0.283,0.023 0.258,0.017C0.233,0.012 0.21,0.004 0.187,-0.006C0.164,-0.016 0.143,-0.028 0.124,-0.041C0.105,-0.054 0.088,-0.069 0.075,-0.084Z" style="fill:white;fill-rule:nonzero;"/>
                    </g>
                    <g transform="matrix(266,0,0,266,411.977,187.018)">
                        <path d="M0.066,-0.614C0.07,-0.629 0.076,-0.64 0.084,-0.647C0.092,-0.654 0.101,-0.657 0.112,-0.657C0.117,-0.657 0.122,-0.657 0.125,-0.655C0.153,-0.668 0.182,-0.678 0.213,-0.686C0.244,-0.694 0.275,-0.698 0.306,-0.698C0.327,-0.698 0.347,-0.696 0.366,-0.692C0.386,-0.688 0.405,-0.681 0.423,-0.671C0.443,-0.66 0.461,-0.647 0.477,-0.631C0.494,-0.615 0.507,-0.597 0.518,-0.577C0.529,-0.558 0.538,-0.537 0.544,-0.515C0.55,-0.493 0.554,-0.471 0.554,-0.449C0.554,-0.406 0.542,-0.366 0.519,-0.33C0.495,-0.293 0.465,-0.263 0.43,-0.24C0.394,-0.218 0.354,-0.205 0.308,-0.201C0.299,-0.2 0.29,-0.2 0.281,-0.199C0.272,-0.199 0.263,-0.199 0.255,-0.199C0.238,-0.199 0.222,-0.2 0.206,-0.201C0.189,-0.203 0.173,-0.204 0.157,-0.207L0.157,-0.112C0.157,-0.076 0.157,-0.045 0.158,-0.017C0.157,0 0.152,0.013 0.143,0.022C0.134,0.03 0.124,0.034 0.113,0.034C0.102,0.034 0.093,0.03 0.084,0.023C0.075,0.015 0.07,0.003 0.067,-0.013L0.067,-0.229C0.065,-0.229 0.063,-0.229 0.06,-0.231C0.049,-0.237 0.041,-0.244 0.035,-0.252C0.03,-0.26 0.028,-0.268 0.028,-0.276C0.028,-0.286 0.031,-0.294 0.038,-0.302C0.044,-0.31 0.054,-0.315 0.066,-0.318L0.066,-0.614ZM0.38,-0.591C0.357,-0.603 0.332,-0.609 0.305,-0.609C0.279,-0.609 0.253,-0.605 0.228,-0.597C0.202,-0.59 0.178,-0.58 0.157,-0.57L0.157,-0.298C0.172,-0.295 0.188,-0.292 0.203,-0.29C0.219,-0.288 0.235,-0.287 0.251,-0.287C0.266,-0.287 0.282,-0.288 0.297,-0.291C0.319,-0.294 0.34,-0.3 0.361,-0.307C0.382,-0.314 0.4,-0.326 0.417,-0.343C0.431,-0.359 0.442,-0.376 0.45,-0.396C0.457,-0.415 0.461,-0.434 0.461,-0.453C0.461,-0.481 0.454,-0.507 0.44,-0.532C0.427,-0.557 0.407,-0.576 0.38,-0.591Z" style="fill:white;fill-rule:nonzero;"/>
                    </g>
                    <g transform="matrix(266,0,0,266,565.992,187.018)">
                        <path d="M0.327,-0.094C0.343,-0.095 0.356,-0.091 0.365,-0.083C0.374,-0.075 0.38,-0.066 0.381,-0.055C0.383,-0.045 0.38,-0.035 0.373,-0.025C0.366,-0.015 0.354,-0.008 0.338,-0.004C0.3,-0.003 0.262,-0.002 0.224,-0.003C0.186,-0.003 0.148,-0.003 0.109,-0.003C0.093,-0.006 0.081,-0.011 0.073,-0.02C0.066,-0.03 0.062,-0.04 0.062,-0.05C0.063,-0.061 0.067,-0.071 0.076,-0.08C0.084,-0.088 0.097,-0.093 0.113,-0.094L0.145,-0.094C0.156,-0.094 0.167,-0.094 0.178,-0.093L0.178,-0.576L0.108,-0.576C0.092,-0.578 0.08,-0.584 0.072,-0.593C0.065,-0.602 0.061,-0.612 0.061,-0.623C0.062,-0.633 0.066,-0.643 0.075,-0.652C0.083,-0.661 0.095,-0.666 0.112,-0.666L0.339,-0.666C0.353,-0.662 0.364,-0.655 0.37,-0.646C0.377,-0.638 0.38,-0.629 0.38,-0.619C0.379,-0.61 0.375,-0.601 0.368,-0.593C0.361,-0.584 0.35,-0.579 0.336,-0.576L0.269,-0.576L0.269,-0.092C0.278,-0.092 0.288,-0.092 0.297,-0.092C0.307,-0.093 0.317,-0.093 0.327,-0.094Z" style="fill:white;fill-rule:nonzero;"/>
                    </g>
                    <g transform="matrix(266,0,0,266,683.855,187.018)">
                        <path d="M0.507,-0.648C0.511,-0.662 0.517,-0.673 0.525,-0.681C0.533,-0.688 0.542,-0.692 0.552,-0.692C0.562,-0.692 0.571,-0.688 0.58,-0.682C0.588,-0.675 0.594,-0.665 0.598,-0.651C0.598,-0.545 0.597,-0.443 0.596,-0.345C0.594,-0.246 0.59,-0.144 0.585,-0.039C0.585,-0.039 0.585,-0.038 0.586,-0.038L0.585,-0.038C0.584,-0.034 0.583,-0.031 0.583,-0.028L0.583,-0.02C0.579,-0.008 0.573,0.001 0.565,0.007C0.557,0.013 0.549,0.015 0.54,0.015C0.527,0.015 0.515,0.01 0.503,-0.002C0.501,-0.005 0.5,-0.008 0.498,-0.01C0.497,-0.012 0.495,-0.014 0.494,-0.017L0.493,-0.017L0.493,-0.019C0.466,-0.064 0.439,-0.107 0.411,-0.148C0.383,-0.188 0.354,-0.229 0.325,-0.268C0.295,-0.307 0.265,-0.346 0.235,-0.385C0.204,-0.424 0.173,-0.463 0.14,-0.504L0.14,-0.28C0.14,-0.243 0.141,-0.204 0.141,-0.164C0.141,-0.123 0.141,-0.079 0.141,-0.032C0.141,-0.015 0.136,-0.002 0.127,0.006C0.117,0.015 0.107,0.019 0.096,0.019C0.086,0.019 0.076,0.015 0.067,0.007C0.059,-0.001 0.053,-0.013 0.051,-0.029C0.051,-0.128 0.051,-0.229 0.05,-0.331C0.05,-0.433 0.05,-0.534 0.05,-0.633C0.053,-0.646 0.058,-0.657 0.066,-0.664C0.074,-0.671 0.084,-0.675 0.094,-0.675C0.104,-0.675 0.115,-0.671 0.127,-0.663C0.161,-0.622 0.194,-0.583 0.227,-0.544C0.259,-0.506 0.291,-0.467 0.322,-0.428C0.353,-0.389 0.384,-0.349 0.413,-0.308C0.443,-0.267 0.471,-0.224 0.499,-0.18C0.502,-0.261 0.504,-0.339 0.506,-0.413C0.507,-0.488 0.507,-0.566 0.507,-0.648Z" style="fill:white;fill-rule:nonzero;"/>
                    </g>
                    <g transform="matrix(266,0,0,266,858.445,187.018)">
                        <path d="M0.072,-0.056C0.072,-0.073 0.078,-0.088 0.09,-0.099C0.101,-0.111 0.115,-0.117 0.131,-0.117C0.148,-0.117 0.163,-0.111 0.175,-0.099C0.186,-0.088 0.192,-0.073 0.192,-0.056C0.192,-0.04 0.186,-0.026 0.175,-0.014C0.163,-0.003 0.148,0.003 0.131,0.003C0.115,0.003 0.101,-0.003 0.09,-0.014C0.078,-0.026 0.072,-0.04 0.072,-0.056ZM0.082,-0.627C0.085,-0.641 0.09,-0.651 0.099,-0.659C0.107,-0.666 0.116,-0.67 0.125,-0.67C0.135,-0.671 0.144,-0.667 0.152,-0.661C0.161,-0.654 0.168,-0.644 0.172,-0.63L0.172,-0.249C0.172,-0.232 0.167,-0.22 0.158,-0.212C0.149,-0.203 0.139,-0.199 0.129,-0.198C0.118,-0.198 0.108,-0.202 0.099,-0.209C0.09,-0.217 0.084,-0.229 0.082,-0.245L0.082,-0.627Z" style="fill:white;fill-rule:nonzero;"/>
                    </g>
                </g>
            </g>
        </g>
    </g>
    <defs>
        <linearGradient id="_Linear2" x1="0" y1="0" x2="1" y2="0" gradientUnits="userSpaceOnUse" gradientTransform="matrix(7.5118e-15,122.677,-122.677,7.5118e-15,1420.52,1631.26)"><stop offset="0" style="stop-color:rgb(250,235,45);stop-opacity:1"/><stop offset="0.76" style="stop-color:rgb(77,70,142);stop-opacity:1"/><stop offset="1" style="stop-color:rgb(60,112,128);stop-opacity:1"/></linearGradient>
    </defs>
</svg>
